<svg xmlns="http://www.w3.org/2000/svg" width="26" height="26" viewBox="0 0 26 26">
    <g fill="none" fill-rule="evenodd">
        <path fill="#F1F2F2" d="M-1377-37H63V987h-1440z"/>
        <path fill="#E67D04" d="M.25 3.083v19.834a2.833 2.833 0 0 0 2.833 2.833h19.834a2.842 2.842 0 0 0 2.833-2.833V3.083A2.842 2.842 0 0 0 22.917.25H3.083A2.833 2.833 0 0 0 .25 3.083zm17 5.667A4.244 4.244 0 0 1 13 13a4.244 4.244 0 0 1-4.25-4.25A4.244 4.244 0 0 1 13 4.5a4.244 4.244 0 0 1 4.25 4.25zM4.5 20.083c0-2.833 5.667-4.391 8.5-4.391s8.5 1.558 8.5 4.391V21.5h-17v-1.417z"/>
    </g>
</svg>
